{"title":"Game of Thrones S05E10 720p HDTV x264-0SEC","uid":12017929,"size":1453978902,"categoryP":"video","categoryS":"hd___tv_shows","magnet":"?xt=urn:btih:9bf79c2553f83cf045b9ac978eb7ebdf0d8794c4&amp;dn=Game+of+Thrones+S05E10+720p+HDTV+x264-0SEC&amp;tr=udp%3A%2F%2Ftracker.openbittorrent.com%3A80&amp;tr=udp%3A%2F%2Fopen.demonii.com%3A1337&amp;tr=udp%3A%2F%2Ftracker.coppersurfer.tk%3A6969&amp;tr=udp%3A%2F%2Fexodus.desync.com%3A6969","seeders":141,"leechers":3,"uploader":"HeroMaster","files":2,"time":1434342565,"description":"Game of Thrones S05E10 720p HDTV x264-0SEC\n\n\nRelease: Game.of.Thrones.S05E10.720p.HDTV.x264-0SEC\nDate: 15-06-2015\nSource: HBO EAST (UNSCRAMBLED)\n\n\nIMDB: http://imdb.com/title/tt0944947/\n\n\nVideo\nID                                       : 1\nFormat                                   : AVC\nFormat/Info                              : Advanced Video Codec\nFormat profile                           : &lt;a class=&quot;__cf_email__&quot; href=&quot;/cdn-cgi/l/email-protection&quot; data-cfemail=&quot;0b43626c634b473f253a&quot;&gt;[email&amp;#160;protected]&lt;/a&gt;&lt;script data-cfhash='f9e31' type=&quot;text/javascript&quot;&gt;\n/* &lt;![CDATA[ */!function(){try{var t=&quot;currentScript&quot;in document?document.currentScript:function(){for(var t=document.getElementsByTagName(&quot;script&quot;),e=t.length;e--;)if(t[e].getAttribute(&quot;data-cfhash&quot;))return t[e]}();if(t&amp;&amp;t.previousSibling){var e,r,n,i,c=t.previousSibling,a=c.getAttribute(&quot;data-cfemail&quot;);if(a){for(e=&quot;&quot;,r=parseInt(a.substr(0,2),16),n=2;a.length-n;n+=2)i=parseInt(a.substr(n,2),16)^r,e+=String.fromCharCode(i);e=document.createTextNode(e),c.parentNode.replaceChild(e,c)}t.parentNode.removeChild(t);}}catch(u){}}()/* ]]&gt; */&lt;/script&gt;\nFormat settings, CABAC                   : Yes\nFormat settings, ReFrames                : 5 frames\nCodec ID                                 : V_MPEG4/ISO/AVC\nDuration                                 : 1h 0mn\nBit rate                                 : 2 776 Kbps\nWidth                                    : 1 280 pixels\nHeight                                   : 720 pixels\nDisplay aspect ratio                     : 16:9\nFrame rate mode                          : Constant\nFrame rate                               : 23.976 fps\nColor space                              : YUV\nChroma subsampling                       : 4:2:0\nBit depth                                : 8 bits\nScan type                                : Progressive\nBits/(Pixel*Frame)                       : 0.126\nStream size                              : 1.17 GiB (86%)\nWriting library                          : x264 core 146 r2538 121396c\nDefault                                  : Yes\nForced                                   : No\nColor range                              : Limited\nMatrix coefficients                      : BT.709\n\n\nAudio\nID                                       : 2\nFormat                                   : AC-3\nFormat/Info                              : Audio Coding 3\nMode extension                           : CM (complete main)\nFormat settings, Endianness              : Big\nCodec ID                                 : A_AC3\nDuration                                 : 1h 0mn\nBit rate mode                            : Constant\nBit rate                                 : 384 Kbps\nChannel(s)                               : 6 channels\nChannel(s)_Original                      : 2 channels\nChannel positions                        : Front: L R\nSampling rate                            : 48.0 KHz\nBit depth                                : 16 bits\nCompression mode                         : Lossy\nStream size                              : 165 MiB (12%)\nDefault                                  : No\nForced                                   : No\n\n\nRelease Notes:\n\n\nEnd to an extraordinary Season 5 of Game of Thrones, we had a great time watching\n\nit, hope for a good Season next year, enjoy and let the fire burn in all Pirates.\n\n\nPoster:\n\n &lt;a href=&quot;\nhttp://i.imgur.com/dpZl7jE.jpg&quot; rel=&quot;nofollow&quot; target=&quot;_NEW&quot;&gt;\nhttp://i.imgur.com/dpZl7jE.jpg&lt;/a&gt;\n\n\nScreenshots:\n\n &lt;a href=&quot;\nhttp://i.imgur.com/cSeMR9H.jpg&quot; rel=&quot;nofollow&quot; target=&quot;_NEW&quot;&gt;\nhttp://i.imgur.com/cSeMR9H.jpg&lt;/a&gt;\n\n\nSEED AND ENJOY!","torrent":{"xt":"urn:btih:9bf79c2553f83cf045b9ac978eb7ebdf0d8794c4","amp;dn":"Game+of+Thrones+S05E10+720p+HDTV+x264-0SEC","amp;tr":["udp%3A%2F%2Ftracker.openbittorrent.com%3A80","udp%3A%2F%2Fopen.demonii.com%3A1337","udp%3A%2F%2Ftracker.coppersurfer.tk%3A6969","udp%3A%2F%2Fexodus.desync.com%3A6969"],"infoHash":"9bf79c2553f83cf045b9ac978eb7ebdf0d8794c4","infoHashBuffer":{"type":"Buffer","data":[155,247,156,37,83,248,60,240,69,185,172,151,142,183,235,223,13,135,148,196]},"announce":[],"urlList":[]}}